# xmcd
#
# Track frame offsets:
#	150
#	10984
#	25247
#	37626
#	49594
#	62607
#	77902
#	89379
#	102298
#	115075
#	126823
#	138131
#	151424
#	165324
#	177788
#	189856
#	200181
#	214103
#	227405
#	239831
#
# Disc length: 3378 seconds
#
# Revision: 1
# Processed by: cddbd v1.5.2PL0 Copyright (c) Steve Scherf et al.
# Submitted via: audiograbber 1.83.01
#
DISCID=fb0d3014
DTITLE=Monroe, Bill - The Father Of Bluegrass - CD1
DYEAR=2014
DGENRE=Bluegrass
TTITLE0=Will The Circle Be Unbroken
TTITLE1=What Would You Give In Exchange For Your Soul?
TTITLE2=Mule Skinner Blues
TTITLE3=Katy Hill
TTITLE4=Blue Yodel # 7
TTITLE5=In The Pines
TTITLE6=Orange Blossom Special
TTITLE7=Heavy Traffic Ahead
TTITLE8=True Life Blues
TTITLE9=Rocky Road Blues
TTITLE10=Blue Grass Special
TTITLE11=Summertime Is Past And Gone
TTITLE12=Blue Moon Of Kentucky
TTITLE13=Toy Heart
TTITLE14=Wicked Path Of Sin
TTITLE15=Blue Grass Breakdown
TTITLE16=Blue Yodel # 4
TTITLE17=My Rose Of Old Kentucky
TTITLE18=Molly And Tenbrooks
TTITLE19=Little Cabin Home On The Hill
EXTD=
EXTT0=
EXTT1=
EXTT2=
EXTT3=
EXTT4=
EXTT5=
EXTT6=
EXTT7=
EXTT8=
EXTT9=
EXTT10=
EXTT11=
EXTT12=
EXTT13=
EXTT14=
EXTT15=
EXTT16=
EXTT17=
EXTT18=
EXTT19=
PLAYORDER=
